<mxfile modified="2023-07-23T14:19:13.439Z" host="app.diagrams.net" agent="Mozilla/5.0 (Windows NT 10.0; Win64; x64) AppleWebKit/537.36 (KHTML, like Gecko) Chrome/114.0.0.0 Safari/537.36" etag="4vnGACprXNh1Y-upWoTB" version="21.6.5" type="github">
  <diagram id="WI9T0HZ2pTsCkuznbFz-" name="Page-1">
    <mxGraphModel dx="2347" dy="852" grid="1" gridSize="10" guides="1" tooltips="1" connect="1" arrows="1" fold="1" page="1" pageScale="1" pageWidth="1169" pageHeight="827" math="0" shadow="0">
      <root>
        <mxCell id="0" />
        <mxCell id="1" parent="0" />
        <mxCell id="Co23d4PtDFO6StpBjzTT-1" value="Provider 1 (SFTP)" style="swimlane;startSize=0;dashed=1;fontSize=18;" vertex="1" parent="1">
          <mxGeometry x="910" y="90" width="260" height="120" as="geometry" />
        </mxCell>
        <mxCell id="Co23d4PtDFO6StpBjzTT-29" value="" style="sketch=0;outlineConnect=0;fontColor=#232F3E;gradientColor=none;fillColor=#067F68;strokeColor=none;dashed=0;verticalLabelPosition=bottom;verticalAlign=top;align=center;html=1;fontSize=12;fontStyle=0;aspect=fixed;shape=mxgraph.aws4.transfer_for_sftp_resource;" vertex="1" parent="Co23d4PtDFO6StpBjzTT-1">
          <mxGeometry x="20" y="21" width="76" height="78" as="geometry" />
        </mxCell>
        <mxCell id="Co23d4PtDFO6StpBjzTT-2" value="Provider 2 (SOAP)" style="swimlane;startSize=0;dashed=1;fontSize=18;" vertex="1" parent="1">
          <mxGeometry x="909" y="250" width="260" height="120" as="geometry" />
        </mxCell>
        <mxCell id="Co23d4PtDFO6StpBjzTT-3" value="Provider 3 (HTTP POST w callback)" style="swimlane;startSize=0;dashed=1;fontSize=18;" vertex="1" parent="1">
          <mxGeometry x="909" y="422" width="260" height="120" as="geometry" />
        </mxCell>
        <mxCell id="Co23d4PtDFO6StpBjzTT-5" value="Internal" style="swimlane;startSize=0;fontSize=18;" vertex="1" parent="1">
          <mxGeometry x="-60" y="90" width="880" height="480" as="geometry" />
        </mxCell>
        <mxCell id="Co23d4PtDFO6StpBjzTT-16" style="edgeStyle=orthogonalEdgeStyle;rounded=0;orthogonalLoop=1;jettySize=auto;html=1;entryX=0.04;entryY=0.52;entryDx=0;entryDy=0;entryPerimeter=0;" edge="1" parent="Co23d4PtDFO6StpBjzTT-5" source="Co23d4PtDFO6StpBjzTT-6" target="Co23d4PtDFO6StpBjzTT-13">
          <mxGeometry relative="1" as="geometry">
            <Array as="points">
              <mxPoint x="340" y="310" />
            </Array>
          </mxGeometry>
        </mxCell>
        <mxCell id="Co23d4PtDFO6StpBjzTT-17" value="PaymentRequested" style="edgeLabel;html=1;align=center;verticalAlign=middle;resizable=0;points=[];" vertex="1" connectable="0" parent="Co23d4PtDFO6StpBjzTT-16">
          <mxGeometry x="0.1667" y="3" relative="1" as="geometry">
            <mxPoint as="offset" />
          </mxGeometry>
        </mxCell>
        <mxCell id="Co23d4PtDFO6StpBjzTT-6" value="Payment request system" style="verticalLabelPosition=bottom;html=1;verticalAlign=top;align=center;strokeColor=none;fillColor=#00BEF2;shape=mxgraph.azure.azure_website;pointerEvents=1;" vertex="1" parent="Co23d4PtDFO6StpBjzTT-5">
          <mxGeometry x="215" y="285" width="50" height="50" as="geometry" />
        </mxCell>
        <mxCell id="Co23d4PtDFO6StpBjzTT-15" style="edgeStyle=orthogonalEdgeStyle;rounded=0;orthogonalLoop=1;jettySize=auto;html=1;entryX=0;entryY=0.5;entryDx=0;entryDy=0;entryPerimeter=0;" edge="1" parent="Co23d4PtDFO6StpBjzTT-5" source="Co23d4PtDFO6StpBjzTT-7" target="Co23d4PtDFO6StpBjzTT-6">
          <mxGeometry relative="1" as="geometry" />
        </mxCell>
        <mxCell id="Co23d4PtDFO6StpBjzTT-7" value="User" style="shape=umlActor;verticalLabelPosition=bottom;verticalAlign=top;html=1;outlineConnect=0;" vertex="1" parent="Co23d4PtDFO6StpBjzTT-5">
          <mxGeometry x="30" y="280" width="30" height="60" as="geometry" />
        </mxCell>
        <mxCell id="Co23d4PtDFO6StpBjzTT-22" style="edgeStyle=orthogonalEdgeStyle;rounded=0;orthogonalLoop=1;jettySize=auto;html=1;entryX=0;entryY=0.5;entryDx=0;entryDy=0;entryPerimeter=0;" edge="1" parent="Co23d4PtDFO6StpBjzTT-5" source="Co23d4PtDFO6StpBjzTT-13" target="Co23d4PtDFO6StpBjzTT-19">
          <mxGeometry relative="1" as="geometry" />
        </mxCell>
        <mxCell id="Co23d4PtDFO6StpBjzTT-24" style="edgeStyle=orthogonalEdgeStyle;rounded=0;orthogonalLoop=1;jettySize=auto;html=1;entryX=0;entryY=0.5;entryDx=0;entryDy=0;entryPerimeter=0;" edge="1" parent="Co23d4PtDFO6StpBjzTT-5" source="Co23d4PtDFO6StpBjzTT-13" target="Co23d4PtDFO6StpBjzTT-20">
          <mxGeometry relative="1" as="geometry" />
        </mxCell>
        <mxCell id="Co23d4PtDFO6StpBjzTT-25" style="edgeStyle=orthogonalEdgeStyle;rounded=0;orthogonalLoop=1;jettySize=auto;html=1;entryX=0;entryY=0.5;entryDx=0;entryDy=0;entryPerimeter=0;" edge="1" parent="Co23d4PtDFO6StpBjzTT-5" source="Co23d4PtDFO6StpBjzTT-13" target="Co23d4PtDFO6StpBjzTT-21">
          <mxGeometry relative="1" as="geometry" />
        </mxCell>
        <mxCell id="Co23d4PtDFO6StpBjzTT-13" value="Service bus" style="image;sketch=0;aspect=fixed;html=1;points=[];align=center;fontSize=12;image=img/lib/mscae/Service_Bus.svg;" vertex="1" parent="Co23d4PtDFO6StpBjzTT-5">
          <mxGeometry x="460" y="285" width="50" height="50" as="geometry" />
        </mxCell>
        <mxCell id="Co23d4PtDFO6StpBjzTT-14" value="&lt;font style=&quot;font-size: 18px;&quot;&gt;Process Payment Request&lt;/font&gt;" style="text;html=1;strokeColor=none;fillColor=none;align=center;verticalAlign=middle;whiteSpace=wrap;rounded=0;" vertex="1" parent="Co23d4PtDFO6StpBjzTT-5">
          <mxGeometry x="-38" y="-37" width="300" height="30" as="geometry" />
        </mxCell>
        <mxCell id="Co23d4PtDFO6StpBjzTT-19" value="Provider 1 Service" style="verticalLabelPosition=bottom;html=1;verticalAlign=top;align=center;strokeColor=none;fillColor=#00BEF2;shape=mxgraph.azure.azure_website;pointerEvents=1;" vertex="1" parent="Co23d4PtDFO6StpBjzTT-5">
          <mxGeometry x="750" y="30" width="50" height="50" as="geometry" />
        </mxCell>
        <mxCell id="Co23d4PtDFO6StpBjzTT-20" value="Provider 2 Service" style="verticalLabelPosition=bottom;html=1;verticalAlign=top;align=center;strokeColor=none;fillColor=#00BEF2;shape=mxgraph.azure.azure_website;pointerEvents=1;" vertex="1" parent="Co23d4PtDFO6StpBjzTT-5">
          <mxGeometry x="750" y="190" width="50" height="50" as="geometry" />
        </mxCell>
        <mxCell id="Co23d4PtDFO6StpBjzTT-21" value="Provider 3 Service" style="verticalLabelPosition=bottom;html=1;verticalAlign=top;align=center;strokeColor=none;fillColor=#00BEF2;shape=mxgraph.azure.azure_website;pointerEvents=1;" vertex="1" parent="Co23d4PtDFO6StpBjzTT-5">
          <mxGeometry x="750" y="360" width="50" height="50" as="geometry" />
        </mxCell>
        <mxCell id="Co23d4PtDFO6StpBjzTT-30" style="edgeStyle=orthogonalEdgeStyle;rounded=0;orthogonalLoop=1;jettySize=auto;html=1;" edge="1" parent="1" source="Co23d4PtDFO6StpBjzTT-19" target="Co23d4PtDFO6StpBjzTT-29">
          <mxGeometry relative="1" as="geometry" />
        </mxCell>
      </root>
    </mxGraphModel>
  </diagram>
</mxfile>
